<svg width="144" height="22" viewBox="0 0 144 22" fill="none" xmlns="http://www.w3.org/2000/svg">
<g id="logo transition-rev" clip-path="url(#clip0_5148_21532)">
<path id="Vector" d="M0.509766 18.7999L2.60977 13.9699C4.85977 15.5599 7.70977 16.3699 11.0398 16.3699C13.3798 16.3699 14.4298 15.9799 14.4298 15.1099C14.4298 14.3299 13.8898 14.1199 10.7698 13.8199C3.62977 13.1299 1.43977 11.5099 1.43977 7.12994C1.43977 2.74994 5.00977 0.439941 11.1298 0.439941C14.7598 0.439941 17.9098 1.27994 20.3098 2.86994L18.2398 7.48994C16.4098 6.25994 14.1898 5.62994 11.6998 5.62994C9.20977 5.62994 8.27977 6.01994 8.27977 6.91994C8.27977 7.69994 8.78977 7.90994 11.8798 8.20994C19.0198 8.89994 21.2698 10.5199 21.2698 14.8999C21.2698 19.2799 17.8798 21.5599 11.2798 21.5599C6.77977 21.5599 2.99977 20.5999 0.509766 18.7999Z" fill="white"/>
<path id="Vector_2" d="M23.7598 10.9999C23.7598 4.54994 28.1698 0.439941 35.0998 0.439941C42.0298 0.439941 46.4398 4.54994 46.4398 10.9999C46.4398 17.4499 42.0298 21.5599 35.0998 21.5599C28.1698 21.5599 23.7598 17.4499 23.7598 10.9999ZM39.5398 10.9999C39.5398 8.11994 37.7998 6.25994 35.0998 6.25994C32.3998 6.25994 30.6598 8.11994 30.6598 10.9999C30.6598 13.8799 32.3998 15.7399 35.0998 15.7399C37.7998 15.7399 39.5398 13.8799 39.5398 10.9999Z" fill="white"/>
<path id="Vector_3" d="M70.7996 0.799805V21.1998H64.6496L56.5496 9.61981V21.1998H50.0996V0.799805H57.5696L64.3496 10.5198V0.799805H70.7996Z" fill="white"/>
<path id="Vector_4" d="M96.1198 10.9998C96.1198 17.3298 92.0698 21.1998 85.4398 21.1998H75.5098V0.799805H85.4398C92.0698 0.799805 96.1198 4.66981 96.1198 10.9998ZM89.2198 10.9998C89.2198 8.02981 87.6898 6.4998 84.7198 6.4998H82.2898V15.4998H84.7198C87.6898 15.4998 89.2198 13.9698 89.2198 10.9998Z" fill="white"/>
<path id="Vector_5" d="M106.559 6.1998V8.6598H116.999V13.3398H106.559V15.7998H118.949V21.1998H99.7793V0.799805H118.949V6.1998H106.559Z" fill="white"/>
<path id="Vector_6" d="M136.23 21.1998L132.03 14.5998H129.69V21.1998H122.91V0.799805H135.06C140.31 0.799805 143.01 3.1398 143.01 7.6998C143.01 10.7898 141.75 12.8898 139.32 13.8798L144 21.1998H136.23ZM129.69 9.2598H134.04C135.48 9.2598 136.11 8.7798 136.11 7.6998C136.11 6.6198 135.48 6.1398 134.04 6.1398H129.69V9.2598Z" fill="white"/>
</g>
<defs>
<clipPath id="clip0_5148_21532">
<rect width="143.49" height="21.12" fill="white" transform="translate(0.509766 0.439941)"/>
</clipPath>
</defs>
</svg>
