<?xml version="1.0" encoding="UTF-8"?>
<svg id="Layer_1" data-name="Layer 1" xmlns="http://www.w3.org/2000/svg" viewBox="0 0 168 21.12">
  <defs>
    <style>
      .cls-1 {
        fill: #231f20;
        stroke-width: 0px;
      }
    </style>
  </defs>
  <path class="cls-1" d="m34.59,21.12c-6.93,0-11.34-4.11-11.34-10.56S27.66,0,34.59,0h24.85C66.37,0,70.78,4.11,70.78,10.56s-4.41,10.56-11.34,10.56m-48.67,0c6.6,0,9.99-2.25,9.99-6.66s-2.25-6-9.39-6.69c-3.09-.3-3.6-.51-3.6-1.29,0-.9,1.05-1.29,3.42-1.29,2.49,0,4.71.63,6.54,1.86l2.07-4.62C17.4.84,14.25,0,10.62,0,4.5,0,.93,2.49.93,6.69s2.19,6,9.33,6.69c3.12.3,3.66.51,3.66,1.29,0,.87-1.05,1.26-3.39,1.26-3.33,0-6.18-.81-8.43-2.4l-2.1,4.83c2.49,1.8,6.27,2.76,10.77,2.76ZM88.35.36v9.72L81.57.36h-7.47v20.4h6.45v-11.58l8.1,11.58h6.15V.36h-6.45Zm21.09,0h-9.93v20.4h9.93c6.63,0,10.68-3.87,10.68-10.2S116.07.36,109.44.36Zm-.72,14.7h-2.43V6.06h2.43c2.97,0,4.5,1.53,4.5,4.5s-1.53,4.5-4.5,4.5Zm34.23-9.3V.36h-19.17v20.4h19.17v-5.4h-12.39v-2.46h10.44v-4.68h-10.44v-2.46h12.39Zm25.05,15l-4.68-7.32c2.43-.99,3.69-3.09,3.69-6.18,0-4.56-2.7-6.9-7.95-6.9h-12.15v20.4h6.78v-6.6h2.34l4.2,6.6h7.77Zm-14.31-15.06h4.35c1.44,0,2.07.48,2.07,1.56s-.63,1.56-2.07,1.56h-4.35v-3.12Z"/>
</svg>