<svg width="107" height="108" viewBox="0 0 107 108" fill="none" xmlns="http://www.w3.org/2000/svg">
<path id="Vector" d="M0.292969 93.8864L11.0316 69.1875C22.5373 77.3182 37.1111 81.4602 54.1396 81.4602C66.1055 81.4602 71.4748 79.4659 71.4748 75.017C71.4748 71.0284 68.7134 69.9545 52.7589 68.4204C16.2475 64.892 5.04865 56.608 5.04865 34.2102C5.04865 11.8125 23.3043 0 54.5998 0C73.1623 0 89.2702 4.29545 101.543 12.4261L90.9577 36.0511C81.5998 29.7614 70.2475 26.5398 57.5146 26.5398C44.7816 26.5398 40.0259 28.5341 40.0259 33.1364C40.0259 37.125 42.6339 38.1989 58.435 39.733C94.9464 43.2614 106.452 51.5455 106.452 73.9432C106.452 96.3409 89.1168 108 55.3668 108C32.3555 108 13.0259 103.091 0.292969 93.8864Z" fill="#D7E7D9"/>
</svg>
