<?xml version="1.0" encoding="UTF-8"?>
<svg id="Layer_2" data-name="Layer 2" xmlns="http://www.w3.org/2000/svg" viewBox="0 0 195.92 120.08">
  <defs>
    <style>
      .cls-1 {
        fill: #231f20;
        stroke-width: 0px;
      }
    </style>
  </defs>
  <g id="Layer_1-2" data-name="Layer 1">
    <path class="cls-1" d="M145.44,0H50.49C20.25,0,0,19.04,0,47.52c0,1.33.04,2.65.13,3.94.06.83.13,1.65.23,2.46,0,.08.01.15.03.23.04.38.08.75.14,1.12.17,1.25.39,2.48.64,3.68.16.74.33,1.47.53,2.19.06.25.13.5.2.75.14.51.3,1.02.46,1.53.12.37.24.74.37,1.11.12.37.26.74.39,1.1.14.36.28.73.42,1.08.04.09.07.17.1.25.25.63.53,1.25.82,1.87.16.34.33.69.49,1.03.17.34.35.68.52,1.01.18.34.36.67.55,1,.18.33.37.66.57.98.19.32.39.64.59.96.79,1.27,1.66,2.49,2.6,3.66.24.29.47.58.71.87,1.92,2.29,4.08,4.37,6.46,6.22.6.46,1.21.91,1.83,1.35.93.66,1.9,1.28,2.89,1.86.99.59,2,1.14,3.04,1.65.41.2.83.4,1.24.6.67.3,1.35.6,2.03.88.37.15.74.29,1.12.44.38.14.75.28,1.13.41.39.14.77.27,1.16.4.36.11.72.23,1.09.34.42.13.84.25,1.27.37.39.11.8.22,1.2.32.89.23,1.79.43,2.71.62.65.13,1.31.25,1.98.37,1.29.21,2.61.39,3.95.53.45.04.9.08,1.35.12s.9.07,1.36.1c.92.05,1.84.09,2.78.11.06.01.13.01.19.01,3.11,13.77,12.96,25.04,29.3,25.04,9.31,0,17.41-2.3,24.43-6.88l-7.02-14.85c-4.86,3.24-9.99,4.45-14.58,4.45s-8.12-3.92-10.21-7.76h74.25c30.23,0,50.48-19.04,50.48-47.52S175.67,0,145.44,0ZM21.46,47.52c0-17.14,11.75-28.89,29.03-28.89s29.02,11.75,29.02,28.89-11.74,28.89-29.02,28.89-29.03-11.75-29.03-28.89Z"/>
  </g>
</svg>