<?xml version="1.0" encoding="UTF-8"?>
<svg id="Layer_2" data-name="Layer 2" xmlns="http://www.w3.org/2000/svg" viewBox="0 0 633.11 67.58">
  <defs>
    <style>
      .cls-1 {
        fill: #231f20;
        stroke-width: 0px;
      }
    </style>
  </defs>
  <g id="Layer_1-2" data-name="Layer 1">
    <g>
      <path class="cls-1" d="M0,34.08C0,12.96,14.3,0,36.77,0c9.12,0,16.89,2.11,23.9,6.62l-4.42,12.09c-6.43-3.84-12.1-5.47-18.33-5.47-14.01,0-22.65,7.97-22.65,20.64s8.74,20.45,23.23,20.45c7.01,0,13.25-1.82,19.49-5.66l4.9,12.09c-6.43,4.51-15.26,6.82-25.34,6.82C13.92,67.58,0,54.91,0,34.08Z"/>
      <path class="cls-1" d="M71.62,33.79C71.62,13.53,86.01,0,107.52,0s35.9,13.53,35.9,33.79-14.4,33.79-35.9,33.79-35.9-13.54-35.9-33.79ZM128.16,33.79c0-12.19-8.35-20.54-20.64-20.54s-20.64,8.35-20.64,20.54,8.35,20.54,20.64,20.54,20.64-8.35,20.64-20.54Z"/>
      <path class="cls-1" d="M204.96,66.43l-16.22-24h-16.51v24h-14.98V1.15h38.88c15.17,0,23.33,7.2,23.33,20.64,0,10.37-4.8,16.99-14.02,19.49l17.18,25.15h-17.66ZM172.22,29.57h22.27c6.62,0,9.7-2.5,9.7-7.78s-3.07-7.78-9.7-7.78h-22.27v15.55Z"/>
      <path class="cls-1" d="M282.71,66.43l-16.22-24h-16.51v24h-14.98V1.15h38.88c15.17,0,23.33,7.2,23.33,20.64,0,10.37-4.8,16.99-14.02,19.49l17.18,25.15h-17.66ZM249.98,29.57h22.27c6.62,0,9.7-2.5,9.7-7.78s-3.07-7.78-9.7-7.78h-22.27v15.55Z"/>
      <path class="cls-1" d="M312.76,1.15h14.98v65.28h-14.98V1.15Z"/>
      <path class="cls-1" d="M410.1,1.15l-27.55,65.28h-15.36L339.64,1.15h16.22l19.39,48.28L394.55,1.15h15.55Z"/>
      <path class="cls-1" d="M436.99,14.01v13.15h37.82v12.86h-37.82v13.54h44.06v12.86h-59.04V1.15h59.04v12.86h-44.06Z"/>
      <path class="cls-1" d="M540.57,52.6h-29.47l-5.86,13.82h-15.65L518.49,1.15h15.36l28.89,65.28h-16.32l-5.86-13.82ZM516.38,40.12h18.91l-9.41-23.71-9.5,23.71Z"/>
      <path class="cls-1" d="M571,42.33V1.15h14.97v38.78c0,9.89,5.28,14.5,16.42,14.5s16.42-4.61,16.42-14.5V1.15h14.3v41.18c0,16.13-11.23,25.25-31.1,25.25s-31.01-9.12-31.01-25.25Z"/>
    </g>
  </g>
</svg>