<?xml version="1.0" encoding="UTF-8"?>
<svg id="Layer_2" data-name="Layer 2" xmlns="http://www.w3.org/2000/svg" viewBox="0 0 510.4 237.14">
  <defs>
    <style>
      .cls-1 {
        fill: #231f20;
        stroke-width: 0px;
      }
    </style>
  </defs>
  <g id="Layer_1-2" data-name="Layer 1">
    <g>
      <path class="cls-1" d="M0,60C0,38.88,14.3,25.92,36.77,25.92c9.12,0,16.89,2.11,23.9,6.62l-4.42,12.09c-6.43-3.84-12.1-5.47-18.33-5.47-14.01,0-22.65,7.97-22.65,20.64s8.74,20.45,23.23,20.45c7.01,0,13.25-1.82,19.49-5.66l4.9,12.09c-6.43,4.51-15.26,6.82-25.34,6.82C13.92,93.5,0,80.83,0,60Z"/>
      <path class="cls-1" d="M73.92,68.25V27.07h14.97v38.78c0,9.89,5.28,14.5,16.42,14.5s16.42-4.61,16.42-14.5V27.07h14.3v41.18c0,16.13-11.23,25.25-31.1,25.25s-31.01-9.12-31.01-25.25Z"/>
      <path class="cls-1" d="M210.81,39.94h-24.19v52.41h-14.97v-52.41h-24.19v-12.86h63.36v12.86Z"/>
      <path class="cls-1" d="M387.05,39.94v13.15h37.82v12.86h-37.82v13.54h44.06v12.86h-59.04V27.07h59.04v12.86h-44.06Z"/>
      <path class="cls-1" d="M492.74,92.35l-16.22-24h-16.51v24h-14.98V27.07h38.88c15.17,0,23.33,7.2,23.33,20.64,0,10.37-4.8,16.99-14.02,19.49l17.18,25.15h-17.66ZM460.01,55.49h22.27c6.62,0,9.7-2.5,9.7-7.78s-3.07-7.78-9.7-7.78h-22.27v15.55Z"/>
    </g>
  </g>
</svg>