<?xml version="1.0" encoding="UTF-8"?>
<svg id="Layer_2" data-name="Layer 2" xmlns="http://www.w3.org/2000/svg" viewBox="0 0 633.04 109.73">
  <defs>
    <style>
      .cls-1 {
        fill: #231f20;
        stroke-width: 0px;
      }
    </style>
  </defs>
  <g id="Layer_1-2" data-name="Layer 1">
    <g>
      <path class="cls-1" d="M64.32,50.77c0,20.25-12.86,32.64-33.89,32.64H0V18.13h30.43c21.02,0,33.89,12.38,33.89,32.64ZM49.05,50.77c0-12.67-7.3-19.77-20.16-19.77h-13.92v39.55h13.92c12.86,0,20.16-7.1,20.16-19.77Z"/>
      <path class="cls-1" d="M93.21,30.99v13.15h37.82v12.86h-37.82v13.54h44.06v12.86h-59.04V18.13h59.04v12.86h-44.06Z"/>
      <path class="cls-1" d="M347.35,69.58h-29.47l-5.86,13.82h-15.65l28.89-65.27h15.36l28.89,65.27h-16.32l-5.86-13.82ZM323.16,57.1h18.91l-9.41-23.71-9.5,23.71Z"/>
      <path class="cls-1" d="M429.14,83.4l-16.22-24h-16.51v24h-14.98V18.13h38.88c15.17,0,23.33,7.2,23.33,20.64,0,10.37-4.8,16.99-14.02,19.49l17.18,25.15h-17.66ZM396.41,46.54h22.27c6.62,0,9.7-2.5,9.7-7.78s-3.07-7.78-9.7-7.78h-22.27v15.55Z"/>
      <path class="cls-1" d="M523.5,50.77c0,20.25-12.86,32.64-33.89,32.64h-30.43V18.13h30.43c21.02,0,33.89,12.38,33.89,32.64ZM508.24,50.77c0-12.67-7.3-19.77-20.16-19.77h-13.92v39.55h13.92c12.86,0,20.16-7.1,20.16-19.77Z"/>
      <path class="cls-1" d="M537.43,18.13h14.98v65.27h-14.98V18.13Z"/>
      <path class="cls-1" d="M633.04,18.13v65.27h-13.82l-35.23-47.23v47.23h-14.3V18.13h17.76l31.29,41.95V18.13h14.3Z"/>
    </g>
  </g>
</svg>