<?xml version="1.0" encoding="UTF-8"?>
<svg id="Layer_2" data-name="Layer 2" xmlns="http://www.w3.org/2000/svg" viewBox="0 0 633.04 66.43">
  <defs>
    <style>
      .cls-1 {
        fill: #231f20;
        stroke-width: 0px;
      }
    </style>
  </defs>
  <g id="Layer_1-2" data-name="Layer 1">
    <g id="Artwork_10" data-name="Artwork 10">
      <path class="cls-1" d="M170.3,66.43c-9.98,0-18.05-2.98-23.71-8.45l7.39-10.85c3.74,3.84,9.12,6.05,15.07,6.05,8.54,0,12.86-4.7,12.86-14.21V0h105.91v40.41c0,17.18-9.31,26.01-26.59,26.01h-90.94Z"/>
    </g>
    <path class="cls-1" d="M64.32,32.64c0,20.25-12.86,32.64-33.89,32.64H0V0h30.43c21.02,0,33.89,12.38,33.89,32.64ZM49.05,32.64c0-12.67-7.3-19.77-20.16-19.77h-13.92v39.55h13.92c12.86,0,20.16-7.1,20.16-19.77Z"/>
    <path class="cls-1" d="M93.21,12.86v13.15h37.82v12.86h-37.82v13.54h44.06v12.86h-59.04V0h59.04v12.86h-44.06Z"/>
    <path class="cls-1" d="M347.35,51.45h-29.47l-5.86,13.82h-15.65L325.27,0h15.36l28.89,65.27h-16.32l-5.86-13.82ZM323.16,38.97h18.91l-9.41-23.71-9.5,23.71Z"/>
    <path class="cls-1" d="M429.14,65.27l-16.22-24h-16.51v24h-14.98V0h38.88c15.17,0,23.33,7.2,23.33,20.64,0,10.37-4.8,16.99-14.02,19.49l17.18,25.15h-17.66ZM396.41,28.41h22.27c6.62,0,9.7-2.5,9.7-7.78s-3.07-7.78-9.7-7.78h-22.27v15.55Z"/>
    <path class="cls-1" d="M523.5,32.64c0,20.25-12.86,32.64-33.89,32.64h-30.43V0h30.43c21.02,0,33.89,12.38,33.89,32.64ZM508.24,32.64c0-12.67-7.3-19.77-20.16-19.77h-13.92v39.55h13.92c12.86,0,20.16-7.1,20.16-19.77Z"/>
    <path class="cls-1" d="M537.43,0h14.98v65.27h-14.98V0Z"/>
    <path class="cls-1" d="M633.04,0v65.27h-13.82l-35.23-47.23v47.23h-14.3V0h17.76l31.29,41.95V0h14.3Z"/>
  </g>
</svg>