<?xml version="1.0" encoding="UTF-8"?>
<svg id="Layer_2" data-name="Layer 2" xmlns="http://www.w3.org/2000/svg" viewBox="0 0 1080.73 67.58">
  <defs>
    <style>
      .cls-1 {
        fill: #231f20;
        stroke-width: 0px;
      }
    </style>
  </defs>
  <g id="Layer_1-2" data-name="Layer 1">
    <path class="cls-1" d="M65.56,59.8c-7.1,5.18-16.13,7.78-27.36,7.78C14.21,67.58,0,54.91,0,34.08S14.59,0,37.44,0c9.31,0,17.28,2.11,24.38,6.62l-4.42,12.09c-6.53-3.84-12.38-5.47-18.81-5.47-14.4,0-23.33,7.97-23.33,20.64s9.02,20.45,23.9,20.45c4.13,0,7.97-.58,11.71-1.82v-11.33h-16.8v-12.86h31.49v31.49Z"/>
    <path class="cls-1" d="M95.33,14.01v13.15h37.82v12.86h-37.82v13.54h44.06v12.86h-59.04V1.15h59.04v12.86h-44.06Z"/>
    <path class="cls-1" d="M217.62,48.28c0,12-8.16,18.14-23.9,18.14h-40.41V1.15h39.07c15.26,0,23.13,5.95,23.13,17.57,0,7.1-3.36,11.9-10.08,14.21,8.16,2.21,12.19,7.3,12.19,15.36ZM168.29,27.17h23.81c5.76,0,8.54-2.11,8.54-6.43s-2.78-6.72-8.35-6.72h-24v13.15ZM202.36,46.75c0-4.51-2.98-6.72-8.93-6.72h-25.15v13.54h25.34c5.86,0,8.74-2.21,8.74-6.82Z"/>
    <path class="cls-1" d="M295.86,48.28c0,12-8.16,18.14-23.9,18.14h-40.41V1.15h39.07c15.26,0,23.13,5.95,23.13,17.57,0,7.1-3.36,11.9-10.08,14.21,8.16,2.21,12.19,7.3,12.19,15.36ZM246.52,27.17h23.81c5.76,0,8.54-2.11,8.54-6.43s-2.78-6.72-8.35-6.72h-24v13.15ZM280.6,46.75c0-4.51-2.98-6.72-8.93-6.72h-25.15v13.54h25.34c5.86,0,8.74-2.21,8.74-6.82Z"/>
    <path class="cls-1" d="M309.79,1.15h14.98v65.28h-14.98V1.15Z"/>
    <path class="cls-1" d="M387.64,52.6h-29.47l-5.86,13.82h-15.65L365.56,1.15h15.36l28.89,65.28h-16.32l-5.86-13.82ZM363.45,40.12h18.91l-9.41-23.71-9.5,23.71Z"/>
    <path class="cls-1" d="M411.45,27.45h27.07v12.38h-27.07v-12.38Z"/>
    <path class="cls-1" d="M498.71,66.43l-16.22-24h-16.51v24h-14.98V1.15h38.88c15.17,0,23.33,7.2,23.33,20.64,0,10.37-4.8,16.99-14.02,19.49l17.18,25.15h-17.66ZM465.98,29.57h22.27c6.62,0,9.7-2.5,9.7-7.78s-3.07-7.78-9.7-7.78h-22.27v15.55Z"/>
    <path class="cls-1" d="M528.76,1.15h14.98v65.28h-14.98V1.15Z"/>
    <path class="cls-1" d="M557.66,34.08c0-21.12,14.3-34.08,36.77-34.08,9.12,0,16.89,2.11,23.9,6.62l-4.42,12.09c-6.43-3.84-12.1-5.47-18.33-5.47-14.01,0-22.65,7.97-22.65,20.64s8.74,20.45,23.23,20.45c7.01,0,13.25-1.82,19.49-5.66l4.9,12.09c-6.43,4.51-15.26,6.82-25.34,6.82-23.61,0-37.53-12.67-37.53-33.5Z"/>
    <path class="cls-1" d="M831.23,52.6h-29.47l-5.86,13.82h-15.65L809.15,1.15h15.36l28.89,65.28h-16.32l-5.86-13.82ZM807.04,40.12h18.91l-9.41-23.71-9.5,23.71Z"/>
    <path class="cls-1" d="M913.02,66.43l-16.22-24h-16.51v24h-14.98V1.15h38.88c15.17,0,23.33,7.2,23.33,20.64,0,10.37-4.8,16.99-14.02,19.49l17.18,25.15h-17.66ZM880.29,29.57h22.27c6.62,0,9.7-2.5,9.7-7.78s-3.07-7.78-9.7-7.78h-22.27v15.55Z"/>
    <path class="cls-1" d="M1007.38,33.79c0,20.25-12.86,32.64-33.89,32.64h-30.43V1.15h30.43c21.02,0,33.89,12.38,33.89,32.64ZM992.12,33.79c0-12.67-7.3-19.77-20.16-19.77h-13.92v39.55h13.92c12.86,0,20.16-7.1,20.16-19.77Z"/>
    <path class="cls-1" d="M1016.8,58.46l5.86-11.71c8.06,5.28,17.18,8.06,26.88,8.06,10.46,0,15.93-2.5,15.93-7.2,0-4.42-3.36-5.86-16.61-7.01-21.69-1.92-29.09-7.01-29.09-20.16s10.94-20.45,29.47-20.45c11.13,0,20.35,2.59,28.03,7.78l-5.38,11.33c-6.43-4.22-14.02-6.34-22.08-6.34-9.31,0-14.78,2.59-14.78,7.01s3.36,5.86,16.61,7.01c21.69,1.92,29.09,7.01,29.09,20.16s-10.66,20.64-30.91,20.64c-13.15,0-23.81-2.98-33.02-9.12Z"/>
    <g id="Artwork_8" data-name="Artwork 8">
      <path class="cls-1" d="M768.59,1.15v65.28h-87.48v-26.4h-33.41v26.4h-14.97V1.15h14.97v26.01h33.41V1.15h87.48Z"/>
    </g>
  </g>
</svg>