<?xml version="1.0" encoding="UTF-8"?>
<svg id="Layer_2" data-name="Layer 2" xmlns="http://www.w3.org/2000/svg" viewBox="0 0 429.25 67.58">
  <defs>
    <style>
      .cls-1 {
        fill: #231f20;
        stroke-width: 0px;
      }
    </style>
  </defs>
  <g id="Layer_1-2" data-name="Layer 1">
    <g>
      <path class="cls-1" d="M0,59.13l7.39-10.85c3.74,3.84,9.12,6.05,15.07,6.05,8.54,0,12.86-4.7,12.86-14.21V1.15h14.97v40.41c0,17.18-9.31,26.01-26.59,26.01-9.98,0-18.05-2.98-23.71-8.45Z"/>
      <path class="cls-1" d="M109.63,52.6h-29.47l-5.86,13.82h-15.65L87.55,1.15h15.36l28.89,65.28h-16.32l-5.86-13.82ZM85.44,40.12h18.91l-9.41-23.71-9.5,23.71Z"/>
      <path class="cls-1" d="M311.84,14.01v13.15h37.82v12.86h-37.82v13.54h44.06v12.86h-59.04V1.15h59.04v12.86h-44.06Z"/>
      <path class="cls-1" d="M365.32,58.46l5.86-11.71c8.06,5.28,17.18,8.06,26.88,8.06,10.46,0,15.93-2.5,15.93-7.2,0-4.42-3.36-5.86-16.61-7.01-21.69-1.92-29.09-7.01-29.09-20.16S379.24,0,397.76,0c11.13,0,20.35,2.59,28.03,7.78l-5.38,11.33c-6.43-4.22-14.02-6.34-22.08-6.34-9.31,0-14.78,2.59-14.78,7.01s3.36,5.86,16.61,7.01c21.69,1.92,29.09,7.01,29.09,20.16s-10.66,20.64-30.91,20.64c-13.15,0-23.81-2.98-33.02-9.12Z"/>
    </g>
  </g>
</svg>