<?xml version="1.0" encoding="UTF-8"?>
<svg id="Layer_2" data-name="Layer 2" xmlns="http://www.w3.org/2000/svg" viewBox="0 0 197.41 95.04">
  <defs>
    <style>
      .cls-1 {
        fill: #231f20;
        stroke-width: 0px;
      }
    </style>
  </defs>
  <g id="Layer_1-2" data-name="Layer 1">
    <path class="cls-1" d="M153.13,0c15.66,0,28.62,3.64,39.42,10.93l-7.56,15.93c-9.04-5.94-19.71-8.91-31.05-8.91-13.09,0-20.79,3.64-20.79,9.85s4.72,8.23,23.35,9.85c30.51,2.7,40.9,9.85,40.9,28.35s-14.98,29.02-43.47,29.02H46.44c-18.49,0-33.48-4.18-46.44-12.82l8.23-16.47c11.34,7.42,24.16,11.34,37.8,11.34,14.71,0,22.41-3.51,22.41-10.12,0-6.21-4.72-8.23-23.35-9.85C14.58,54.4,4.18,47.25,4.18,28.75S19.57,0,45.63,0h107.5Z"/>
  </g>
</svg>