<?xml version="1.0" encoding="UTF-8"?>
<svg id="Layer_1" data-name="Layer 1" xmlns="http://www.w3.org/2000/svg" viewBox="0 0 167.91 21.12">
  <defs>
    <style>
      .cls-1 {
        fill: #231f20;
        stroke-width: 0px;
      }
    </style>
  </defs>
  <path class="cls-1" d="m94.83.36v20.4h-30.89l-8.1-11.58v11.58h-6.45V.36h7.47l6.78,9.72V.36h31.19ZM0,18.36l2.1-4.83c2.25,1.59,5.1,2.4,8.43,2.4,2.34,0,3.39-.39,3.39-1.26,0-.78-.54-.99-3.66-1.29C3.12,12.69.93,11.07.93,6.69S4.5,0,10.62,0c3.63,0,6.78.84,9.18,2.43l-2.07,4.62c-1.83-1.23-4.05-1.86-6.54-1.86s-3.42.39-3.42,1.29c0,.78.51.99,3.6,1.29,7.14.69,9.39,2.31,9.39,6.69s-3.39,6.66-9.99,6.66c-4.5,0-8.28-.96-10.77-2.76Zm23.25-7.8c0-6.45,4.41-10.56,11.34-10.56s11.34,4.11,11.34,10.56-4.41,10.56-11.34,10.56-11.34-4.11-11.34-10.56Zm15.78,0c0-2.88-1.74-4.74-4.44-4.74s-4.44,1.86-4.44,4.74,1.74,4.74,4.44,4.74,4.44-1.86,4.44-4.74Zm81,0c0,6.33-4.05,10.2-10.68,10.2h-9.93V.36h9.93c6.63,0,10.68,3.87,10.68,10.2Zm-6.9,0c0-2.97-1.53-4.5-4.5-4.5h-2.43v9h2.43c2.97,0,4.5-1.53,4.5-4.5Zm17.34-4.8v2.46h10.44v4.68h-10.44v2.46h12.39v5.4h-19.17V.36h19.17v5.4h-12.39Zm29.67,15l-4.2-6.6h-2.34v6.6h-6.78V.36h12.15c5.25,0,7.95,2.34,7.95,6.9,0,3.09-1.26,5.19-3.69,6.18l4.68,7.32h-7.77Zm-6.54-11.94h4.35c1.44,0,2.07-.48,2.07-1.56s-.63-1.56-2.07-1.56h-4.35v3.12Z"/>
</svg>